<?xml version="1.0" encoding="UTF-8" standalone="no"?>
<!DOCTYPE svg PUBLIC "-//W3C//DTD SVG 1.1//EN" "http://www.w3.org/Graphics/SVG/1.1/DTD/svg11.dtd">
<svg width="100%" height="100%" viewBox="0 0 133 40" version="1.1" xmlns="http://www.w3.org/2000/svg" xmlns:xlink="http://www.w3.org/1999/xlink" xml:space="preserve" xmlns:serif="http://www.serif.com/" style="fill-rule:evenodd;clip-rule:evenodd;stroke-linejoin:round;stroke-miterlimit:2;">
    <g id="Page-1">
        <g id="M---Public">
            <g id="Bottom">
                <g id="Google-Play">
                    <path id="button" d="M133,4C133,1.792 131.208,0 129,0L4,0C1.792,0 0,1.792 0,4L0,36C0,38.208 1.792,40 4,40L129,40C131.208,40 133,38.208 133,36L133,4Z" style="fill:rgb(94,94,94);"/>
                    <path id="Download-on" d="M43.761,15L43.761,8.779L45.515,8.779C46.056,8.779 46.534,8.899 46.949,9.138C47.365,9.377 47.686,9.718 47.912,10.159C48.138,10.601 48.253,11.108 48.256,11.68L48.256,12.078C48.256,12.664 48.142,13.179 47.916,13.62C47.69,14.061 47.367,14.4 46.947,14.637C46.527,14.873 46.039,14.994 45.481,15L43.761,15ZM44.58,9.454L44.58,14.329L45.443,14.329C46.074,14.329 46.566,14.133 46.917,13.74C47.269,13.347 47.445,12.787 47.445,12.061L47.445,11.697C47.445,10.991 47.279,10.442 46.947,10.05C46.616,9.659 46.145,9.46 45.537,9.454L44.58,9.454ZM49.86,12.646C49.86,12.193 49.949,11.786 50.127,11.424C50.304,11.062 50.552,10.783 50.869,10.587C51.187,10.39 51.549,10.292 51.956,10.292C52.584,10.292 53.093,10.51 53.482,10.945C53.87,11.381 54.064,11.961 54.064,12.684L54.064,12.74C54.064,13.19 53.978,13.594 53.806,13.951C53.634,14.309 53.388,14.587 53.068,14.786C52.747,14.986 52.38,15.085 51.964,15.085C51.338,15.085 50.831,14.868 50.442,14.432C50.054,13.996 49.86,13.419 49.86,12.701L49.86,12.646ZM50.654,12.74C50.654,13.253 50.773,13.664 51.01,13.975C51.248,14.285 51.566,14.44 51.964,14.44C52.365,14.44 52.684,14.283 52.92,13.968C53.156,13.653 53.275,13.213 53.275,12.646C53.275,12.139 53.154,11.728 52.914,11.413C52.673,11.099 52.354,10.941 51.956,10.941C51.566,10.941 51.251,11.096 51.012,11.407C50.773,11.717 50.654,12.162 50.654,12.74ZM59.843,13.911L60.731,10.377L61.52,10.377L60.176,15L59.536,15L58.413,11.497L57.32,15L56.68,15L55.34,10.377L56.125,10.377L57.034,13.838L58.11,10.377L58.746,10.377L59.843,13.911ZM63.769,10.377L63.795,10.958C64.148,10.514 64.609,10.292 65.178,10.292C66.154,10.292 66.646,10.843 66.655,11.945L66.655,15L65.865,15L65.865,11.941C65.862,11.608 65.786,11.361 65.637,11.202C65.487,11.042 65.255,10.963 64.939,10.963C64.683,10.963 64.458,11.031 64.264,11.168C64.071,11.304 63.92,11.484 63.812,11.706L63.812,15L63.022,15L63.022,10.377L63.769,10.377ZM69.403,15L68.613,15L68.613,8.438L69.403,8.438L69.403,15ZM71.157,12.646C71.157,12.193 71.246,11.786 71.423,11.424C71.601,11.062 71.849,10.783 72.166,10.587C72.483,10.39 72.845,10.292 73.252,10.292C73.881,10.292 74.39,10.51 74.778,10.945C75.167,11.381 75.361,11.961 75.361,12.684L75.361,12.74C75.361,13.19 75.275,13.594 75.103,13.951C74.931,14.309 74.684,14.587 74.364,14.786C74.044,14.986 73.676,15.085 73.261,15.085C72.635,15.085 72.128,14.868 71.739,14.432C71.351,13.996 71.157,13.419 71.157,12.701L71.157,12.646ZM71.951,12.74C71.951,13.253 72.069,13.664 72.307,13.975C72.545,14.285 72.863,14.44 73.261,14.44C73.662,14.44 73.981,14.283 74.217,13.968C74.453,13.653 74.571,13.213 74.571,12.646C74.571,12.139 74.451,11.728 74.211,11.413C73.97,11.099 73.651,10.941 73.252,10.941C72.863,10.941 72.548,11.096 72.309,11.407C72.07,11.717 71.951,12.162 71.951,12.74ZM79.902,15C79.856,14.909 79.819,14.747 79.791,14.513C79.424,14.895 78.986,15.085 78.476,15.085C78.021,15.085 77.648,14.957 77.356,14.699C77.064,14.441 76.918,14.114 76.918,13.718C76.918,13.237 77.101,12.863 77.467,12.597C77.832,12.33 78.347,12.197 79.01,12.197L79.778,12.197L79.778,11.834C79.778,11.558 79.696,11.338 79.531,11.174C79.366,11.01 79.122,10.928 78.801,10.928C78.519,10.928 78.283,11 78.092,11.142C77.901,11.284 77.806,11.457 77.806,11.659L77.012,11.659C77.012,11.428 77.094,11.205 77.258,10.99C77.421,10.775 77.643,10.605 77.924,10.48C78.204,10.354 78.512,10.292 78.848,10.292C79.38,10.292 79.797,10.425 80.098,10.691C80.4,10.958 80.556,11.324 80.568,11.791L80.568,13.919C80.568,14.343 80.622,14.681 80.73,14.932L80.73,15L79.902,15ZM78.592,14.398C78.839,14.398 79.074,14.333 79.296,14.205C79.518,14.077 79.679,13.911 79.778,13.705L79.778,12.757L79.159,12.757C78.192,12.757 77.708,13.04 77.708,13.607C77.708,13.855 77.791,14.049 77.956,14.188C78.121,14.328 78.333,14.398 78.592,14.398ZM82.313,12.65C82.313,11.941 82.481,11.371 82.817,10.939C83.152,10.508 83.592,10.292 84.136,10.292C84.676,10.292 85.105,10.477 85.42,10.847L85.42,8.438L86.21,8.438L86.21,15L85.484,15L85.446,14.504C85.13,14.892 84.69,15.085 84.127,15.085C83.592,15.085 83.156,14.866 82.819,14.427C82.482,13.989 82.313,13.416 82.313,12.71L82.313,12.65ZM83.103,12.74C83.103,13.264 83.211,13.674 83.427,13.97C83.643,14.267 83.942,14.415 84.323,14.415C84.824,14.415 85.19,14.19 85.42,13.74L85.42,11.616C85.184,11.18 84.821,10.963 84.332,10.963C83.945,10.963 83.643,11.112 83.427,11.411C83.211,11.71 83.103,12.153 83.103,12.74ZM90.789,12.646C90.789,12.193 90.878,11.786 91.056,11.424C91.233,11.062 91.481,10.783 91.798,10.587C92.116,10.39 92.478,10.292 92.885,10.292C93.513,10.292 94.022,10.51 94.411,10.945C94.799,11.381 94.993,11.961 94.993,12.684L94.993,12.74C94.993,13.19 94.907,13.594 94.735,13.951C94.563,14.309 94.317,14.587 93.996,14.786C93.676,14.986 93.309,15.085 92.893,15.085C92.267,15.085 91.76,14.868 91.371,14.432C90.983,13.996 90.789,13.419 90.789,12.701L90.789,12.646ZM91.583,12.74C91.583,13.253 91.701,13.664 91.939,13.975C92.177,14.285 92.495,14.44 92.893,14.44C93.294,14.44 93.613,14.283 93.849,13.968C94.085,13.653 94.203,13.213 94.203,12.646C94.203,12.139 94.083,11.728 93.843,11.413C93.602,11.099 93.283,10.941 92.885,10.941C92.495,10.941 92.18,11.096 91.941,11.407C91.702,11.717 91.583,12.162 91.583,12.74ZM97.43,10.377L97.455,10.958C97.808,10.514 98.269,10.292 98.838,10.292C99.814,10.292 100.307,10.843 100.315,11.945L100.315,15L99.526,15L99.526,11.941C99.523,11.608 99.447,11.361 99.297,11.202C99.148,11.042 98.915,10.963 98.599,10.963C98.343,10.963 98.118,11.031 97.925,11.168C97.731,11.304 97.581,11.484 97.472,11.706L97.472,15L96.683,15L96.683,10.377L97.43,10.377Z" style="fill:white;"/>
                    <path id="play" d="M98.672,27.368C98.672,28.604 98.399,29.584 97.852,30.309C97.306,31.034 96.574,31.396 95.657,31.396C94.574,31.396 93.745,31.016 93.169,30.254L93.169,34.297L92.299,34.297L92.299,23.325L93.111,23.325L93.155,24.446C93.725,23.601 94.552,23.179 95.635,23.179C96.582,23.179 97.324,23.538 97.863,24.255C98.402,24.973 98.672,25.969 98.672,27.244L98.672,27.368ZM97.794,27.214C97.794,26.204 97.587,25.405 97.172,24.819C96.757,24.233 96.179,23.94 95.438,23.94C94.901,23.94 94.44,24.07 94.055,24.329C93.669,24.587 93.374,24.963 93.169,25.457L93.169,29.258C93.379,29.712 93.679,30.059 94.069,30.298C94.46,30.537 94.921,30.657 95.452,30.657C96.189,30.657 96.763,30.363 97.176,29.774C97.588,29.186 97.794,28.333 97.794,27.214ZM101.592,31.25L100.713,31.25L100.713,20L101.592,20L101.592,31.25ZM108.967,31.25C108.88,31.001 108.824,30.632 108.799,30.144C108.492,30.544 108.1,30.853 107.625,31.071C107.149,31.288 106.645,31.396 106.114,31.396C105.353,31.396 104.737,31.184 104.266,30.759C103.795,30.334 103.56,29.797 103.56,29.148C103.56,28.376 103.881,27.766 104.522,27.317C105.164,26.868 106.058,26.643 107.204,26.643L108.792,26.643L108.792,25.742C108.792,25.176 108.617,24.73 108.269,24.406C107.92,24.081 107.411,23.918 106.743,23.918C106.133,23.918 105.628,24.075 105.228,24.387C104.828,24.7 104.628,25.076 104.628,25.515L103.75,25.508C103.75,24.878 104.043,24.332 104.628,23.871C105.214,23.409 105.933,23.179 106.787,23.179C107.67,23.179 108.366,23.4 108.876,23.842C109.386,24.283 109.648,24.9 109.663,25.691L109.663,29.441C109.663,30.208 109.743,30.781 109.904,31.162L109.904,31.25L108.967,31.25ZM106.216,30.62C106.801,30.62 107.325,30.479 107.786,30.195C108.247,29.912 108.582,29.534 108.792,29.06L108.792,27.317L107.226,27.317C106.353,27.327 105.67,27.487 105.177,27.797C104.684,28.107 104.438,28.533 104.438,29.075C104.438,29.519 104.603,29.888 104.932,30.181C105.261,30.474 105.689,30.62 106.216,30.62ZM114.507,29.99L116.819,23.325L117.763,23.325L114.382,32.598L114.207,33.008C113.772,33.97 113.102,34.451 112.194,34.451C111.985,34.451 111.76,34.417 111.521,34.348L111.514,33.623L111.968,33.667C112.397,33.667 112.744,33.561 113.01,33.348C113.276,33.136 113.502,32.771 113.687,32.253L114.075,31.184L111.089,23.325L112.048,23.325L114.507,29.99Z" style="fill:white;"/>
                    <path id="logo" d="M9.991,30.79L9.991,9.213C9.991,8.46 10.427,7.809 11.06,7.5L23.529,19.998L11.055,32.5C10.424,32.19 9.991,31.541 9.991,30.79ZM27.485,23.962L13.851,31.852L24.604,21.075L27.485,23.962ZM31.723,18.489C32.177,18.836 32.469,19.385 32.469,20.001C32.469,20.609 32.186,21.149 31.744,21.498L28.848,23.174L25.678,19.998L28.846,16.823L31.723,18.489ZM13.859,8.151L27.483,16.035L24.604,18.92L13.859,8.151Z" style="fill:white;fill-rule:nonzero;"/>
                </g>
            </g>
        </g>
        <g transform="matrix(0.0448084,0,0,0.0448084,41.092,-5.04563)">
            <g id="Layer1">
                <g id="g3435">
                    <path id="path2998" d="M285.593,679.746L169.021,679.746L169.021,714.337L251.694,714.337C247.61,762.843 207.254,783.528 169.161,783.528C120.425,783.528 77.897,745.183 77.897,691.436C77.897,639.08 118.437,598.757 169.269,598.757C208.486,598.757 231.595,623.758 231.595,623.758L255.815,598.677C255.815,598.677 224.728,564.069 168.031,564.069C95.841,564.069 39.988,625.003 39.988,690.82C39.988,755.313 92.527,818.203 169.874,818.203C237.905,818.203 287.704,771.6 287.704,702.688C287.704,688.149 285.593,679.746 285.593,679.746Z" style="fill:rgb(254,254,254);fill-rule:nonzero;"/>
                    <path id="path3000" d="M381.086,654.697C333.255,654.697 298.976,692.092 298.976,735.706C298.976,779.964 332.224,818.054 381.648,818.054C426.391,818.054 463.046,783.857 463.046,736.657C463.046,682.559 420.408,654.697 381.086,654.697ZM381.562,686.781C405.084,686.781 427.374,705.797 427.374,736.441C427.374,766.434 405.178,785.992 381.454,785.992C355.386,785.992 334.821,765.114 334.821,736.203C334.821,707.911 355.131,686.781 381.562,686.781Z" style="fill:rgb(254,254,254);fill-rule:nonzero;"/>
                    <path id="path3005" d="M559.673,654.697C511.841,654.697 477.562,692.092 477.562,735.706C477.562,779.964 510.811,818.054 560.235,818.054C604.977,818.054 641.632,783.857 641.632,736.657C641.632,682.559 598.994,654.697 559.673,654.697ZM560.148,686.781C583.671,686.781 605.96,705.797 605.96,736.441C605.96,766.434 583.765,785.992 560.04,785.992C533.972,785.992 513.407,765.114 513.407,736.203C513.407,707.911 533.717,686.781 560.148,686.781Z" style="fill:rgb(254,254,254);fill-rule:nonzero;"/>
                    <path id="path3007" d="M734.824,654.784C690.92,654.784 656.41,693.237 656.41,736.397C656.41,785.561 696.419,818.162 734.067,818.162C757.346,818.162 769.724,808.922 778.863,798.315L778.863,814.422C778.863,842.602 761.752,859.477 735.926,859.477C710.977,859.477 698.463,840.926 694.114,830.399L662.723,843.522C673.859,867.068 696.277,891.625 736.186,891.625C779.837,891.625 813.108,864.13 813.108,806.466L813.108,659.692L778.863,659.692L778.863,673.528C768.34,662.182 753.941,654.784 734.824,654.784ZM738.002,686.802C759.527,686.802 781.63,705.182 781.63,736.57C781.63,768.474 759.574,786.057 737.526,786.057C714.12,786.057 692.342,767.052 692.342,736.873C692.342,705.514 714.961,686.802 738.002,686.802Z" style="fill:rgb(254,254,254);fill-rule:nonzero;"/>
                    <path id="path3011" d="M965.374,654.589C923.959,654.589 889.187,687.539 889.187,736.16C889.187,787.606 927.946,818.119 969.352,818.119C1003.91,818.119 1025.12,799.213 1037.78,782.274L1009.54,763.487C1002.22,774.857 989.967,785.971 969.525,785.971C946.562,785.971 936.005,773.397 929.464,761.216L1038.99,715.772L1033.3,702.455C1022.72,676.374 998.034,654.589 965.374,654.589ZM966.801,686.002C981.724,686.002 992.464,693.937 997.025,703.449L923.886,734.019C920.733,710.352 943.155,686.002 966.801,686.002Z" style="fill:rgb(254,254,254);fill-rule:nonzero;"/>
                    <rect id="path3015" x="836.976" y="572.513" width="35.975" height="240.754" style="fill:rgb(254,254,254);fill-rule:nonzero;"/>
                </g>
            </g>
        </g>
    </g>
</svg>
