<?xml version="1.0" encoding="UTF-8"?>
<svg width="18px" height="18px" viewBox="0 0 18 18" version="1.1" xmlns="http://www.w3.org/2000/svg" xmlns:xlink="http://www.w3.org/1999/xlink">
	<title>62B0CA7F-76F2-4A97-93F8-9FE9FA2A16E5</title>
	<g id="Page-1" stroke="none" stroke-width="1" fill="none" fill-rule="evenodd">
		<g id="M---Public" transform="translate(-176.000000, -475.000000)">
			<rect fill="#F7F7F7" x="0" y="0" width="320" height="621"></rect>
			<g id="Bottom" fill="#464646" transform="translate(0.000000, 340.000000)">
				<g id="social-media" transform="translate(76.000000, 135.000000)">
					<g id="Social-Icon-Copy-2" transform="translate(100.000000, 0.000000)">
						<path d="M16.6553339,13.0342874 C16.6553339,14.8793211 15.1532094,16.3888942 13.3172795,16.3888942 L4.97540725,16.3888942 C3.1394773,16.3888942 1.6373528,14.8793211 1.6373528,13.0342874 L1.6373528,4.96571261 C1.6373528,3.12067887 3.1394773,1.61110582 4.97540725,1.61110582 L13.3172795,1.61110582 C15.1532094,1.61110582 16.6553339,3.12075342 16.6553339,4.96578715 L16.6553339,13.0342874 Z M13.4709784,0 C16.1228772,0 18.2926126,2.18049441 18.2926126,4.84554314 L18.2926126,4.84554314 L18.2926126,13.1544569 C18.2926126,15.8195056 16.1228772,18 13.4709784,18 L13.4709784,18 L4.82163421,18 C2.16973539,18 0,15.8195056 0,13.1544569 L0,13.1544569 L0,4.84554314 C0,2.18049441 2.16973539,0 4.82163421,0 L4.82163421,0 Z M9.1610749,4.46977499 C6.59233945,4.46977499 4.51008987,6.55202457 4.51008987,9.12076002 C4.51008987,11.6894955 6.59241447,13.7718201 9.16114992,13.7718201 C11.7298854,13.7718201 13.8121349,11.6895705 13.8121349,9.12083504 C13.8121349,6.55209958 11.7298104,4.46977499 9.1610749,4.46977499 Z M9.16114992,6.12007612 C10.8184276,6.12007612 12.1618338,7.4634823 12.1618338,9.12076002 C12.1618338,10.7780377 10.8184276,12.1214439 9.1610749,12.1215189 C7.50379718,12.1215189 6.160391,10.7781128 6.160391,9.12083504 C6.16046602,7.4634823 7.50379718,6.12015114 9.16114992,6.12007612 Z M13.953075,3.06037423 C13.4082007,3.06037423 12.9664945,3.50208043 12.9664945,4.04695476 C12.9664945,4.5918291 13.4082007,5.0335353 13.953075,5.0335353 C14.4979494,5.0335353 14.9396556,4.5918291 14.9396556,4.04695476 C14.9396556,3.50208043 14.4979494,3.06037423 13.953075,3.06037423 Z" id="Combined-Shape"></path>
					</g>
				</g>
			</g>
		</g>
	</g>
</svg>