<?xml version="1.0" encoding="UTF-8"?>
<svg width="18px" height="18px" viewBox="0 0 18 18" version="1.1" xmlns="http://www.w3.org/2000/svg" xmlns:xlink="http://www.w3.org/1999/xlink">
    <title>69349784-D1AF-41E3-BBF0-E8A8087D607B</title>
    <g id="Page-1" stroke="none" stroke-width="1" fill="none" fill-rule="evenodd">
        <g id="M---Public" transform="translate(-126.000000, -475.000000)">
            <rect fill="#F7F7F7" x="0" y="0" width="320" height="621"></rect>
            <g id="Footer" fill="#464646" fill-rule="nonzero">
                <g id="Bottom" transform="translate(0.000000, 340.000000)">
                    <g id="social-media" transform="translate(76.000000, 135.000000)">
                        <g id="Social-Icon-Copy" transform="translate(50.000000, 0.000000)">
                            <path d="M18,3.7045801 C17.3378786,3.99380622 16.6262116,4.18909565 15.8790116,4.2769759 C16.6411782,3.82696972 17.2270353,3.11458353 17.502687,2.26566779 C16.7893124,2.68222756 15.9989202,2.9849509 15.1577771,3.14790634 C14.4841294,2.44130468 13.5242831,2 12.4621817,2 C10.4223545,2 8.7691226,3.62757674 8.7691226,5.63512738 C8.7691226,5.92022523 8.8018432,6.19761038 8.86474813,6.46364897 C5.79556527,6.3120401 3.07445633,4.86479709 1.25312641,2.66544256 C0.93518658,3.20221658 0.753101301,3.82674724 0.753101301,4.49303028 C0.753101301,5.75413033 1.40505248,6.86678569 2.39591181,7.51870631 C1.79054292,7.5 1.22110893,7.33632081 0.723293657,7.06402802 C0.722942092,7.07923093 0.722942092,7.09443384 0.722942092,7.10988395 C0.722942092,8.87119687 1.9959319,10.3404161 3.68532469,10.6745094 C3.3753704,10.7575692 3.04906835,10.8019913 2.71237005,10.8019913 C2.47438602,10.8019913 2.24300638,10.779051 2.01750289,10.7368042 C2.48749435,12.1809078 3.85123801,13.2319852 5.46730451,13.2612044 C4.20338004,14.2364897 2.61109437,14.8175623 0.880744312,14.8175623 C0.582667872,14.8175623 0.288860429,14.8004312 0,14.7668612 C1.63434785,15.7984097 3.57533524,16.4 5.66091608,16.4 C12.4535935,16.4 16.1681231,10.8606523 16.1681231,6.05663119 C16.1681231,5.89899059 16.1644568,5.74231408 16.1573502,5.58635446 C16.8788107,5.07385566 17.5051228,4.43365241 18,3.7045801 Z" id="twitter-twitter"></path>
                        </g>
                    </g>
                </g>
            </g>
        </g>
    </g>
</svg>