<?xml version="1.0" encoding="UTF-8"?>
<svg width="18px" height="18px" viewBox="0 0 18 18" version="1.1" xmlns="http://www.w3.org/2000/svg" xmlns:xlink="http://www.w3.org/1999/xlink">
    <title>7B8D3751-E13A-4F5D-9DEF-2C6225067640</title>
    <g id="Page-1" stroke="none" stroke-width="1" fill="none" fill-rule="evenodd">
        <g id="M---Public" transform="translate(-226.000000, -475.000000)">
            <rect fill="#F7F7F7" x="0" y="0" width="320" height="621"></rect>
            <g id="Bottom" transform="translate(0.000000, 340.000000)">
                <g id="social-media" transform="translate(76.000000, 135.000000)">
                    <g id="Social-Icon-Copy-3" transform="translate(150.000000, 0.000000)">
                        <g id="YouTube" transform="translate(0.000000, 3.000000)">
                            <path d="M17.6292355,1.92029102 C17.4216582,1.16948888 16.813753,0.577510267 16.0427513,0.37537123 C14.6341905,-2.98395722e-05 8.99994726,-2.98395722e-05 8.99994726,-2.98395722e-05 C8.99994726,-2.98395722e-05 3.36570405,-2.98395722e-05 1.95714325,0.360932727 C1.2009685,0.563071765 0.578236357,1.16948888 0.370658975,1.92029102 C-1.49197861e-05,3.29194877 -1.49197861e-05,6.1363338 -1.49197861e-05,6.1363338 C-1.49197861e-05,6.1363338 -1.49197861e-05,8.99515733 0.370658975,10.3523766 C0.578236357,11.1033231 1.18614154,11.6951573 1.95714325,11.8974407 C3.380531,12.2726974 8.99994726,12.2726974 8.99994726,12.2726974 C8.99994726,12.2726974 14.6341905,12.2726974 16.0427513,11.9117349 C16.813753,11.7095958 17.4216582,11.1176172 17.6292355,10.3668151 C17.9999851,8.99515733 17.9999851,6.1507723 17.9999851,6.1507723 C17.9999851,6.1507723 18.0147364,3.29194877 17.6292355,1.92029102" id="Fill-1" fill="#464646"></path>
                            <polygon id="Fill-4" fill="#FFFFFF" points="7.25103096 9.05634 11.9656834 6.34093893 7.25103096 3.62553786"></polygon>
                        </g>
                    </g>
                </g>
            </g>
        </g>
    </g>
</svg>