<svg xmlns="http://www.w3.org/2000/svg" viewBox="0 0 229.34 77.94"><defs><style>.cls-1{fill:#a11d21;}.cls-2{fill:#cb2026;}</style></defs><g id="Layer_2" data-name="Layer 2"><g id="seeking21_color_fl"><polygon class="cls-1" points="30.83 8.01 33.64 11.89 36.95 0 26.35 6.33 30.83 8.01"/><polygon class="cls-2" points="30.83 8.01 36.95 0 26.35 6.33 30.83 8.01"/><path d="M17.46,32.76c-6.22-2-11.86-3.93-11.86-10,0-6.89,5.31-10.15,11.66-10.15,4.09,0,7,1.64,9.89,4L31.41,14l0,0a19.8,19.8,0,0,0-14.17-6.3C8,7.65.21,13.12.21,23c0,9.42,6.91,12.11,13.86,14.3s14.06,3.9,14.06,11.55c0,6.91-4.92,10.8-11.58,10.8-5.5,0-9.24-1.94-12.34-6L0,56.26H0C3.82,62,9.54,64.6,16.46,64.6c9.6,0,17.06-6.26,17.06-16.17C33.52,37.82,25.07,35.22,17.46,32.76Z"/><path d="M42.11,50.41c1.58,3.65,6.74,9.28,14.12,9.28,5.79,0,10.78-3,15.07-6.58v5.55c-3.49,3.49-9.84,5.63-14.76,5.63C44.25,64.29,35.92,55,35.92,43S44.8,22.56,56.7,22.56a18.28,18.28,0,0,1,15.71,9.29ZM65.19,30.66a11.49,11.49,0,0,0-8.49-3.49c-9.36,0-16.18,6.9-16.18,15.86a14.93,14.93,0,0,0,.32,3.25Z"/><path d="M80.2,50.41c1.58,3.65,6.74,9.28,14.12,9.28,5.79,0,10.78-3,15.07-6.58v5.55c-3.49,3.49-9.84,5.63-14.76,5.63C82.34,64.29,74,55,74,43s8.88-20.39,20.78-20.39a18.28,18.28,0,0,1,15.71,9.29Zm23.08-19.75a11.49,11.49,0,0,0-8.49-3.49c-9.36,0-16.18,6.9-16.18,15.86a14.93,14.93,0,0,0,.32,3.25Z"/><path d="M147,64.29V23.52l4.6-1V63.34Z"/><path d="M147,19.66V15.28l4.6-.95v4.38Z"/><path d="M156.38,64V23.52l4.6-1v6.59h.16a14,14,0,0,1,11.51-6.59c3.42,0,7.23.67,9.53,2.36,3.7,2.69,5.3,5.22,5.3,11.69V63.34l-4.6.64V35.57c0-5.79-3.73-8.88-10.08-8.88-4.36,0-11.82,3.17-11.82,10.87V63.34Z"/><path d="M192.77,65.65c3.72,4.28,8.16,7.69,14.5,7.69s13.24-4,13.24-10c0-6.82-6.5-11.49-12.84-11.49a28,28,0,0,0-10.39,2.29L199,48.92c-4.12-1.82-7.69-6.66-7.69-11.25,0-9.52,7.61-15.07,16.57-15.07,1.58,0,3.25.08,4.83.08h8.27l-2.32,3.73c3.41,2.78,6,6.26,6,10.94A13.37,13.37,0,0,1,216,49.56c5.47,2.54,9.12,6.89,9.12,13.16,0,9.59-9,15.22-18.23,15.22-7.38,0-13.64-4.37-17.6-9.67Zm3.09-28.22c0,6.5,5.94,10.15,12,10.15,5.86,0,12.21-3.65,12.21-10.15,0-6.66-6.19-10.54-12.13-10.54S195.86,30.77,195.86,37.43Z"/><polygon points="114.35 6.38 118.95 5.43 118.95 42.87 136.88 22.09 140.53 24.31 124.42 43.03 142.43 61.27 139.49 63.98 118.95 43.98 118.95 63.34 114.35 64.29 114.35 6.38"/><path d="M223.27,18.94a3.31,3.31,0,0,1,.69-1,3.26,3.26,0,0,1,1-.65,3.21,3.21,0,0,1,1.23-.24,3.07,3.07,0,0,1,1.21.24,3.26,3.26,0,0,1,1,.65,3.11,3.11,0,0,1,.68,1,3,3,0,0,1,.26,1.23,3.14,3.14,0,0,1-1.94,2.92,3.26,3.26,0,0,1-1.21.23,3.4,3.4,0,0,1-1.23-.23,3.11,3.11,0,0,1-1-.66,3.31,3.31,0,0,1-.69-1,3.12,3.12,0,0,1-.25-1.26A3,3,0,0,1,223.27,18.94Zm.52,2.3a2.57,2.57,0,0,0,.54.85,2.59,2.59,0,0,0,1.86.78,2.44,2.44,0,0,0,1-.21,2.37,2.37,0,0,0,.82-.57,2.6,2.6,0,0,0,.55-.85,2.87,2.87,0,0,0,.19-1.07,2.84,2.84,0,0,0-.19-1.05,2.55,2.55,0,0,0-.55-.84,2.52,2.52,0,0,0-.82-.57,2.6,2.6,0,0,0-1-.2,2.53,2.53,0,0,0-1.86.77,2.53,2.53,0,0,0-.54.84,2.91,2.91,0,0,0,0,2.12Zm2.59-2.89a1.46,1.46,0,0,1,1,.26,1,1,0,0,1,.31.79.89.89,0,0,1-.27.72,1.26,1.26,0,0,1-.69.28L227.75,22h-.61l-1-1.58h-.61V22H225V18.35ZM226.13,20h.36a.94.94,0,0,0,.31-.08.46.46,0,0,0,.21-.18.55.55,0,0,0,.08-.34.5.5,0,0,0-.07-.29.58.58,0,0,0-.18-.17,1.12,1.12,0,0,0-.26-.08l-.29,0h-.76V20Z"/></g></g></svg>